# xmcd
#
# Track frame offsets: 
#        150
#        22070
#        54310
#        78600
#        104184
#        129614
#        147479
#        165304
#        194145
#        219402
#        239721
#        241483
#
# Disc length: 3551 seconds
#
# Revision: 0
# Processed by: cddbd v1.5.2PL0 Copyright (c) Steve Scherf et al.
# Submitted via: ExactAudioCopy v0.99pb3
#
DISCID=bb0ddd0c
DTITLE=The Brawner Brothers - This Is Where You Wanna Be
DYEAR=2006
DGENRE=Soul
TTITLE0=This Is Where You Wanna Be
TTITLE1=Georgia Fine
TTITLE2=The Conjurer
TTITLE3=St. Nick's
TTITLE4=Love Pain
TTITLE5=If I'd Known
TTITLE6=Love For Sale
TTITLE7=Very Superstitious
TTITLE8=Jive Samba
TTITLE9=You Don't Know What Live Is
TTITLE10=Leave My Woman Alone
TTITLE11=Bring It
EXTD=
EXTT0=
EXTT1=
EXTT2=
EXTT3=
EXTT4=
EXTT5=
EXTT6=
EXTT7=
EXTT8=
EXTT9=
EXTT10=
EXTT11=
PLAYORDER=
